<svg width="36" height="55" xmlns="http://www.w3.org/2000/svg" xmlns:xlink="http://www.w3.org/1999/xlink" xml:space="preserve" overflow="hidden"><defs><clipPath id="clip0"><rect x="669" y="342" width="36" height="55"/></clipPath></defs><g clip-path="url(#clip0)" transform="translate(-669 -342)"><path d="M35.8473 17.9269C35.8473 8.02519 27.8227 0 17.9254 0 8.02693 0 0 8.02519 0 17.9269 0 18.1019 0.023352 18.2768 0.0256052 18.4523 0.0256052 18.4568 0.0134171 18.4568 0.0134171 18.4568 0.0134171 18.856 0.0422998 19.2731 0.0889013 19.7057 0.0977095 19.7862 0.11 19.8601 0.114507 19.94 0.161108 20.3071 0.218873 20.687 0.29108 21.0735 0.337784 21.3467 0.386639 21.616 0.449935 21.8798 3.18662 34.0291 17.9209 54.9611 17.9209 54.9611 17.9209 54.9611 31.1503 35.7973 34.8755 23.7125 35.1698 22.8378 35.4008 21.9359 35.5619 21.009 35.7363 20.0888 35.8462 19.2315 35.8462 18.4566 35.8462 18.3984 35.8251 18.3473 35.8251 18.2906 35.8273 18.168 35.8473 18.0508 35.8473 17.9269ZM17.9254 27.2811C12.6807 27.2811 8.43231 23.0333 8.43231 17.7937 8.43231 12.5529 12.6785 8.30459 17.9254 8.30459 23.1623 8.30459 27.414 12.5519 27.414 17.7937 27.4139 23.0322 23.1623 27.2811 17.9254 27.2811Z" fill="#F25C05" transform="matrix(1.00426 0 0 1 669 342.02)"/></g></svg>