<svg width="72" height="80" xmlns="http://www.w3.org/2000/svg" xmlns:xlink="http://www.w3.org/1999/xlink" xml:space="preserve" overflow="hidden"><defs><clipPath id="clip0"><rect x="1000" y="474" width="72" height="80"/></clipPath></defs><g clip-path="url(#clip0)" transform="translate(-1000 -474)"><path d="M106.107 96.3222C103.342 99.3653 100.429 102.087 96.5705 103.688 93.3202 105.038 89.8242 105.556 86.3174 105.556 84.0288 105.556 81.7357 105.336 79.5002 104.983 79.3678 104.959 79.2345 104.938 79.1037 104.914 81.9179 106.469 85.2375 107.231 88.5829 107.231 95.9954 107.231 103.55 103.491 106.107 96.3222" fill="#F25C05" transform="matrix(1 0 0 1.00553 964.007 441.612)"/><path d="M104.91 87.9811C103.411 91.4188 101.575 94.6419 98.8023 97.2216 94.5137 101.215 88.7772 103.181 83.0943 104.155 82.6578 104.229 82.2202 104.298 81.7804 104.358 82.9688 104.594 84.1733 104.707 85.3741 104.707 94.8075 104.707 104.123 97.7174 104.91 87.9811" fill="#F25C05" transform="matrix(1 0 0 1.00553 964.007 441.612)"/><path d="M74.6106 104.799C73.8805 104.336 73.1684 103.846 72.4629 103.344 71.0354 102.33 69.6371 101.266 68.1961 100.276 66.6488 99.2107 65.052 98.23 63.3135 97.48 63.2128 97.4359 63.1104 97.3934 63.007 97.3509 61.4771 96.7356 59.8187 96.3877 58.2059 96.3877 56.063 96.3877 53.9946 96.9997 52.3916 98.4022 51.6559 99.0428 51.0195 99.8521 50.5189 100.843 50.9627 100.039 52.1157 99.4331 53.4456 99.0622 54.4383 98.7843 55.5286 98.6375 56.4949 98.6375 57.0264 98.6375 57.5197 98.6809 57.9387 98.7728 59.362 99.0824 60.6188 99.7101 61.7983 100.475 62.5907 100.99 63.3543 101.53 64.0973 102.084 68.3145 105.222 71.9215 108.781 77.1331 110.467 79.9063 111.365 82.7335 111.775 85.5499 111.775 92.4087 111.775 99.2084 109.344 105.037 105.609 99.9343 107.565 94.5238 108.866 89.2022 108.866 84.1466 108.866 79.1706 107.694 74.6106 104.799" fill="#F25C05" transform="matrix(1 0 0 1.00553 964.007 441.612)"/><path d="M62.4231 102.917C60.5867 101.351 58.3108 100.499 56.0424 100.485L55.9912 100.485C52.9844 100.485 49.9978 101.964 48.0708 105.222 48.005 105.334 48.0064 105.38 48.0517 105.38 48.2168 105.38 48.9497 104.797 49.1409 104.681 49.6749 104.354 50.2107 104.026 50.7669 103.739 52.3041 102.943 53.9462 102.376 55.6833 102.376 55.7958 102.376 55.9097 102.378 56.0236 102.383 59.7487 102.543 62.9223 105.146 65.5965 107.509 64.9002 105.622 63.782 104.074 62.4231 102.917" fill="#F25C05" transform="matrix(1 0 0 1.00553 964.007 441.612)"/><path d="M67.7754 73.6853C67.7754 73.6853 69.8761 75.6739 71.2266 77.6278L73.3116 77.5752C72.4688 76.0864 71.2511 74.1583 70.33 73.6142 70.33 73.6142 71.1107 75.1044 71.1107 75.8142 71.1107 75.8142 69.2656 73.6142 67.7754 73.6853" fill="#F25C05" transform="matrix(1 0 0 1.00553 964.007 441.612)"/><path d="M86.755 78.4456C86.755 78.4456 86.8458 78.3044 87.0148 78.0812L86.9012 78.0783C86.8573 78.2001 86.8098 78.3216 86.755 78.4456" fill="#F25C05" transform="matrix(1 0 0 1.00553 964.007 441.612)"/><path d="M79.3995 87.4808C79.3995 87.4808 79.3706 85.542 79.4887 84.8983 79.4887 84.8983 75.6089 85.8804 76.0043 90.0523 76.0043 90.0523 74.72 81.9623 81.0683 80.7905 81.0683 80.7905 77.3238 79.442 75.7529 80.2418L77.0142 79.0798C77.0142 79.0798 75.8963 78.706 74.545 78.7193 74.4815 78.9611 74.4044 79.2007 74.3037 79.4324 74.3037 79.4324 74.1727 79.167 73.9545 78.753 73.3476 78.8126 72.7199 78.9662 72.1448 79.2735 72.3478 79.8034 72.406 80.2764 72.2455 80.6383 72.2455 80.6383 69.9757 78.9366 69.4779 78.652 69.4779 78.652 71.253 85.1812 67.776 87.3093 67.776 87.3093 68.2006 82.6269 67.2782 81.8459L66.4269 82.9098C66.4269 82.9098 67.5628 79.7876 66.4986 79.0064L65.4345 80.0005C65.4345 80.0005 64.8667 75.5715 63.4476 75.1964L63.2901 75.0855C62.7645 79.719 63.3484 84.5772 64.4536 89.1487L68.4486 89.2497 64.5031 89.349C65.2461 92.3764 66.2123 95.2741 67.2284 97.8945 68.7555 98.8341 70.1917 99.8822 71.5989 100.912 72.0604 101.249 72.5261 101.588 72.9972 101.926 76.4981 92.9984 82.0014 85.5246 83.5161 83.5535 82.763 83.8387 80.9589 84.7667 79.3995 87.4808" fill="#F25C05" transform="matrix(1 0 0 1.00553 964.007 441.612)"/><path d="M61.172 74.2849C60.5409 74.941 59.4005 76.488 59.0476 79.3621 59.0476 79.3621 58.2669 77.5882 58.1252 76.9495 58.1252 76.9495 54.9319 79.3621 56.9187 83.0518 56.9187 83.0518 52.5904 76.098 57.9832 72.55 57.9832 72.55 54.0095 72.7632 52.8742 74.1108L53.5837 72.55C53.5837 72.55 49.894 72.8338 48.6876 75.3879 48.6876 75.3879 48.9713 71.5565 52.5904 70.35 52.5904 70.35 51.8806 69.7825 50.8164 70.35 50.8164 70.35 53.2999 66.1634 59.2605 69.6408 59.2605 69.6408 58.4267 68.2405 56.7334 67.3752L36.0007 67.8972C35.9998 68.0015 35.9967 68.1044 35.9967 68.2088 35.9967 75.7754 38.3332 82.7962 42.322 88.5908L61.7538 89.0804C60.9776 81.8903 61.1039 76.0943 61.172 74.2849" fill="#F25C05" transform="matrix(1 0 0 1.00553 964.007 441.612)"/><path d="M90.3583 62.6473 107.49 62.2153C104.637 45.1883 89.8313 32.212 71.9935 32.212 57.7804 32.212 45.4931 40.4502 39.6414 52.4113L69.8854 53.1728 38.9324 53.9526C37.2496 57.8496 36.2358 62.1031 36.0353 66.5681L56.0385 67.0721C55.5776 66.9042 55.0677 66.7813 54.5061 66.7315L56.5641 66.3052C56.5641 66.3052 55.4285 63.6805 52.2355 64.9575 52.2355 64.9575 54.3644 61.3384 58.7638 64.2477L58.196 63.1161C58.196 63.1161 61.7052 63.9957 62.2417 67.2281L62.3933 67.2326 62.2431 67.2363C62.2915 67.5313 62.3177 67.8437 62.3118 68.1792 62.3118 68.1792 63.7308 60.0614 70.5429 64.3189L68.2012 64.6026C68.2012 64.6026 71.8203 64.8726 73.8071 68.1792 73.8071 68.1792 70.0463 66.3052 68.5561 67.2281L70.6138 68.1792C70.6138 68.1792 66.5692 67.5119 65.079 69.357 65.079 69.357 72.6004 67.9093 75.5096 73.0678L73.3816 72.1245C73.3816 72.1245 74.6466 74.4579 74.727 76.9402 75.3707 76.7183 76.1123 76.6019 76.9537 76.6666 76.9537 76.6666 76.5212 75.8682 75.3195 75.9776 75.3195 75.9776 78.5831 73.5686 82.3009 77.3483L83.0012 77.3311C82.5923 76.3232 81.7629 74.9461 80.1259 74.0771L82.1879 74.4851C82.1879 74.4851 82.1617 71.6248 78.7235 71.5601 78.7235 71.5601 82.0914 69.0533 85.0142 73.444L84.9307 72.1808C84.9307 72.1808 87.6327 74.2129 87.1245 77.2274L87.7615 77.2108C89.2013 75.7163 92.0077 73.7781 94.9932 77.0288L106.974 76.7271C107.636 73.9955 107.99 71.1439 107.99 68.2088 107.99 66.468 107.864 64.7567 107.625 63.082L90.3583 62.6473" fill="#F25C05" transform="matrix(1 0 0 1.00553 964.007 441.612)"/><path d="M73.2253 77.7341 71.2657 77.6846C71.5536 78.1056 71.8053 78.5241 71.9924 78.9192 72.2888 78.5522 72.6982 78.1217 73.2253 77.7341" fill="#F25C05" transform="matrix(1 0 0 1.00553 964.007 441.612)"/><path d="M43.2537 89.8847C45.4754 92.8277 48.1395 95.4172 51.1466 97.554 51.7158 97.0112 52.3536 96.5469 53.0586 96.163 53.812 95.7527 54.6206 95.4431 55.4819 95.2358 56.3402 95.0286 57.2511 94.9248 58.2059 94.9248 59.6832 94.9248 61.2141 95.1833 62.6917 95.6785 62.3061 93.5252 62.0128 91.4202 61.7909 89.4173L43.2537 89.8847" fill="#F25C05" transform="matrix(1 0 0 1.00553 964.007 441.612)"/><path d="M97.3459 82.9143C97.3459 82.9143 94.6087 79.7263 92.8772 79.9963L94.4029 81.671C94.3188 81.6184 90.9112 79.5002 88.8473 80.6068 88.8473 80.6068 96.3402 82.1963 97.014 88.0804L95.4201 86.3829C95.4201 86.3829 95.8846 91.1243 93.4295 93.4757 93.4295 93.4757 93.1098 88.0264 92.0293 86.5694 92.0293 86.5694 92.1697 88.2469 91.8941 88.9004 91.8941 88.9004 91.0487 86.1568 89.6485 85.6427 89.6485 85.6427 92.5929 92.3533 91.0644 93.7881 91.0644 93.7881 89.6341 91.3353 89.2863 90.8817 89.2863 90.8817 88.3827 97.5849 84.3527 98.1949 84.3527 98.1949 86.5657 94.0466 86.0184 92.9672L84.8213 93.6174C84.8213 93.6174 87.0812 91.1826 86.4037 90.0495L85.0358 90.5507C85.0358 90.5507 86.2344 86.2496 85.0727 85.3519L84.7133 84.7766C80.0854 89.8262 77.5952 97.1904 76.2813 102.948L78.5168 103.329 81.5824 102.908 81.6125 102.904C93.5108 99.6109 102.934 90.3648 106.473 78.5716L94.7535 78.2772C95.7356 79.1222 97.0205 80.6313 97.3459 82.9143" fill="#F25C05" transform="matrix(1 0 0 1.00553 964.007 441.612)"/><path d="M82.8738 77.9768C83.0403 78.1742 83.2079 78.3821 83.3758 78.6062 83.3758 78.6062 83.3417 78.3658 83.2309 77.9861L82.8738 77.9768" fill="#F25C05" transform="matrix(1 0 0 1.00553 964.007 441.612)"/></g></svg>